<?xml version="1.0" encoding="UTF-8" standalone="no"?>
<svg
   xmlns:dc="http://purl.org/dc/elements/1.1/"
   xmlns:cc="http://creativecommons.org/ns#"
   xmlns:rdf="http://www.w3.org/1999/02/22-rdf-syntax-ns#"
   xmlns:svg="http://www.w3.org/2000/svg"
   xmlns="http://www.w3.org/2000/svg"
   xmlns:sodipodi="http://sodipodi.sourceforge.net/DTD/sodipodi-0.dtd"
   xmlns:inkscape="http://www.inkscape.org/namespaces/inkscape"
   width="83mm"
   height="43mm"
   viewBox="0 0 82.161457 43"
   version="1.1"
   id="svg8"
   inkscape:version="1.0.1 (3bc2e813f5, 2020-09-07)"
   sodipodi:docname="ChaptersOfFateTitle.svg">
  <defs
     id="defs2">
    <rect
       x="13.898015"
       y="25.657875"
       width="178.53604"
       height="217.02286"
       id="rect24" />
    <rect
       x="12.85119"
       y="12.85119"
       width="179.16071"
       height="175.38095"
       id="rect18" />
    <rect
       x="25.702381"
       y="34.773811"
       width="165.55357"
       height="133.04762"
       id="rect12" />
  </defs>
  <sodipodi:namedview
     id="base"
     pagecolor="#ffffff"
     bordercolor="#666666"
     borderopacity="1.0"
     inkscape:pageopacity="0.0"
     inkscape:pageshadow="2"
     inkscape:zoom="0.7"
     inkscape:cx="265.0248"
     inkscape:cy="166.22971"
     inkscape:document-units="mm"
     inkscape:current-layer="layer1"
     inkscape:document-rotation="0"
     showgrid="false"
     inkscape:window-width="1920"
     inkscape:window-height="1017"
     inkscape:window-x="-8"
     inkscape:window-y="-8"
     inkscape:window-maximized="1"
     viewbox-width="294" />
  <metadata
     id="metadata5">
    <rdf:RDF>
      <cc:Work
         rdf:about="">
        <dc:format>image/svg+xml</dc:format>
        <dc:type
           rdf:resource="http://purl.org/dc/dcmitype/StillImage" />
        <dc:title></dc:title>
      </cc:Work>
    </rdf:RDF>
  </metadata>
  <g
     inkscape:label="Layer 1"
     inkscape:groupmode="layer"
     id="layer1">
    <text
       xml:space="preserve"
       id="text10"
       style="font-style:normal;font-variant:normal;font-weight:normal;font-stretch:normal;font-size:10.5833px;line-height:1.25;font-family:MrsEaves;-inkscape-font-specification:MrsEaves;white-space:pre;shape-inside:url(#rect12);"
       transform="translate(1.1339286,1.1339286)" />
    <text
       xml:space="preserve"
       id="text16"
       style="font-style:normal;font-variant:normal;font-weight:normal;font-stretch:normal;font-size:10.5833px;line-height:1.25;font-family:MrsEavesSmallCaps;-inkscape-font-specification:MrsEavesSmallCaps;white-space:pre;shape-inside:url(#rect18);"
       transform="translate(1.1339286,1.1339286)" />
    <text
       xml:space="preserve"
       id="text22"
       style="font-size:10.5833px;line-height:1.25;font-family:'Ink Free';-inkscape-font-specification:'Ink Free';white-space:pre;shape-inside:url(#rect24);"
       transform="translate(1.1339286,1.1339286)" />
    <g
       aria-label="C"
       id="text30"
       style="font-style:normal;font-variant:normal;font-weight:normal;font-stretch:normal;font-size:24.7785px;line-height:1.25;font-family:'Linux Libertine G';-inkscape-font-specification:'Linux Libertine G';stroke-width:0.290372"
       transform="translate(-7.6350975,-22.300595)">
      <path
         d="m 25.642874,40.622017 q -1.548656,0 -2.867433,-0.447659 -1.306679,-0.459757 -2.226194,-1.234085 -0.919514,-0.774328 -1.572854,-1.802733 -0.64124,-1.040503 -0.955811,-2.189896 -0.302472,-1.149394 -0.302472,-2.37138 0,-1.923722 0.689636,-3.581268 0.689636,-1.669645 1.93582,-2.819038 2.298787,-2.105205 5.323506,-2.105205 1.330877,0 2.395578,0.254077 1.064701,0.254076 1.82693,0.544449 0.762229,0.278274 1.209888,0.32667 0.447658,2.806939 0.544449,3.835344 -0.459757,0.241977 -0.822723,0.120989 -0.266176,-0.87112 -0.65334,-1.560756 -0.375065,-0.689635 -1.004207,-1.306678 -0.617042,-0.617043 -1.572854,-0.955811 -0.955811,-0.338769 -2.189896,-0.338769 -1.004207,0 -2.032611,0.556548 -1.028405,0.54445 -1.923722,1.645448 -1.476063,1.814831 -1.476063,4.912144 0,1.100997 0.21778,2.165698 0.21778,1.064702 0.665438,2.044711 0.459757,0.96791 1.113097,1.705941 0.653339,0.725933 1.597052,1.161492 0.943712,0.43556 2.056809,0.43556 1.730139,0 3.085213,-0.629142 1.355074,-0.64124 2.661753,-2.081006 0.362966,0 0.568647,0.375065 -1.258283,1.645447 -2.867434,2.492368 -1.60915,0.846922 -3.423982,0.846922 z"
         style="font-style:normal;font-variant:normal;font-weight:normal;font-stretch:normal;font-size:24.7785px;font-family:'Linux Libertine G';-inkscape-font-specification:'Linux Libertine G';stroke-width:0.290372"
         id="path84" />
    </g>
    <text
       xml:space="preserve"
       style="font-size:12.7px;line-height:1.25;font-family:'Ink Free';-inkscape-font-specification:'Ink Free';stroke-width:0.264583"
       x="26.269344"
       y="60.476189"
       id="text34"><tspan
         sodipodi:role="line"
         id="tspan32"
         x="26.269344"
         y="60.476189"
         style="stroke-width:0.264583" /></text>
    <text
       xml:space="preserve"
       style="font-size:12.7px;line-height:1.25;font-family:'Ink Free';-inkscape-font-specification:'Ink Free';stroke-width:0.264583"
       x="26.080357"
       y="57.641369"
       id="text38"><tspan
         sodipodi:role="line"
         id="tspan36"
         x="26.080357"
         y="57.641369"
         style="stroke-width:0.264583" /></text>
    <g
       aria-label="HAPTERS"
       id="text42"
       style="font-style:normal;font-variant:normal;font-weight:normal;font-stretch:normal;font-size:11.2889px;line-height:1.25;font-family:'Linux Biolinum G';-inkscape-font-specification:'Linux Biolinum G';stroke-width:0.264583"
       transform="translate(-7.6350975,-22.300595)">
      <path
         d="m 38.17751,27.232105 q 0,-1.411113 -0.115755,-2.259985 l 0.02205,-0.03307 q 0.20395,0.03307 0.578777,0.03307 0.374827,0 0.584289,-0.03307 l 0.01102,0.03307 q -0.110243,0.749653 -0.110243,2.259985 v 2.761591 q 0,1.45521 0.110243,2.259985 l -0.02205,0.03307 q -0.209462,-0.03307 -0.573265,-0.03307 -0.385851,0 -0.589801,0.03307 l -0.01102,-0.03307 q 0.115755,-0.804775 0.115755,-2.259985 v -1.361503 h -3.90812 v 1.361503 q 0,1.411113 0.115755,2.259985 l -0.02205,0.03307 q -0.209462,-0.03307 -0.578777,-0.03307 -0.380339,0 -0.584289,0.03307 l -0.01102,-0.03307 q 0.110243,-0.76619 0.110243,-2.259985 v -2.761591 q 0,-1.45521 -0.110243,-2.259985 l 0.02205,-0.03307 q 0.20395,0.03307 0.573265,0.03307 0.380339,0 0.589801,-0.03307 l 0.01102,0.03307 q -0.115755,0.788239 -0.115755,2.259985 v 0.898482 h 3.90812 z"
         style="font-style:normal;font-variant:normal;font-weight:normal;font-stretch:normal;font-size:11.2889px;font-family:'Linux Biolinum G';-inkscape-font-specification:'Linux Biolinum G';stroke-width:0.264583"
         id="path87" />
      <path
         d="m 44.913368,29.144824 q -0.534679,-1.394576 -1.141017,-2.78364 h -0.02205 l -1.190627,2.778128 q 0.09922,0 0.545704,0.01102 0.446485,0.01102 0.633898,0.01102 0.622874,0 1.17409,-0.01654 z m -2.574178,0.529167 q -0.683508,1.681208 -0.937067,2.612763 -0.137804,-0.03307 -0.512631,-0.03307 -0.253559,0 -0.391363,0.03307 l 3.329344,-7.463462 h 0.314193 l 1.091407,2.667884 1.229212,3.020663 q 0.523655,1.273309 0.771702,1.774915 -0.192926,-0.03307 -0.672484,-0.03307 -0.374826,0 -0.567752,0.03307 -0.248047,-0.926042 -0.876433,-2.612763 -0.633898,-0.01654 -1.322918,-0.01654 -0.810287,0 -1.45521,0.01654 z"
         style="font-style:normal;font-variant:normal;font-weight:normal;font-stretch:normal;font-size:11.2889px;font-family:'Linux Biolinum G';-inkscape-font-specification:'Linux Biolinum G';stroke-width:0.264583"
         id="path89" />
      <path
         d="m 49.560117,25.876114 v 2.662372 q 0.225999,0.115756 0.89297,0.115756 0.865409,0 1.295357,-0.391363 0.429949,-0.391364 0.429949,-1.328431 0,-0.391363 -0.09922,-0.677995 -0.09371,-0.286632 -0.242535,-0.451997 -0.143316,-0.165365 -0.363803,-0.264584 -0.220486,-0.09922 -0.429948,-0.126779 -0.209462,-0.03307 -0.468533,-0.03307 -0.578777,0 -0.799263,0.121267 -0.214975,0.115755 -0.214975,0.374827 z m -0.970139,1.355991 q 0,-1.45521 -0.110244,-2.259985 l 0.02205,-0.03307 q 0.20395,0.03307 0.573265,0.03307 0.170876,0 0.804775,-0.03859 0.633898,-0.03858 0.777214,-0.03858 0.600825,0 1.069359,0.126779 0.474045,0.12678 0.755165,0.33073 0.286633,0.198438 0.468534,0.468533 0.187413,0.270096 0.253559,0.529168 0.07166,0.259071 0.07166,0.529167 0,0.303168 -0.08819,0.606337 -0.08819,0.297657 -0.297657,0.600825 -0.209462,0.303169 -0.518143,0.53468 -0.308681,0.23151 -0.793751,0.374827 -0.479557,0.143316 -1.069358,0.143316 -0.578777,0 -0.948092,-0.115756 v 0.97014 q 0,1.411113 0.115756,2.259985 l -0.02205,0.03307 q -0.209462,-0.03307 -0.578776,-0.03307 -0.369315,0 -0.573265,0.03307 l -0.02205,-0.03307 q 0.110244,-0.76619 0.110244,-2.259985 z"
         style="font-style:normal;font-variant:normal;font-weight:normal;font-stretch:normal;font-size:11.2889px;font-family:'Linux Biolinum G';-inkscape-font-specification:'Linux Biolinum G';stroke-width:0.264583"
         id="path91" />
      <path
         d="m 56.284952,27.232105 q 0,-1.317406 -0.08819,-1.626087 -0.672483,0 -1.240236,0.03859 -0.56224,0.03859 -0.804775,0.07717 l -0.237023,0.03859 -0.02205,-0.0441 q 0.03307,-0.264583 0,-0.744141 l 0.02205,-0.03307 q 0.270096,0.03307 0.677996,0.03307 h 4.354605 q 0.4079,0 0.677996,-0.03307 l 0.02205,0.03307 q -0.03307,0.479558 0,0.744141 l -0.02205,0.0441 q -0.777215,-0.154341 -2.282034,-0.154341 -0.08819,0.308681 -0.08819,1.626087 v 2.761591 q 0,1.411113 0.115756,2.259985 l -0.02756,0.03307 q -0.20395,-0.03307 -0.573264,-0.03307 -0.369315,0 -0.573265,0.03307 l -0.02756,-0.03307 q 0.115756,-0.804775 0.115756,-2.259985 z"
         style="font-style:normal;font-variant:normal;font-weight:normal;font-stretch:normal;font-size:11.2889px;font-family:'Linux Biolinum G';-inkscape-font-specification:'Linux Biolinum G';stroke-width:0.264583"
         id="path93" />
      <path
         d="m 62.238083,29.993696 q 0,1.30087 0.09371,1.626087 0.672484,0 1.466234,-0.03307 0.793751,-0.03307 1.256773,-0.06615 l 0.457509,-0.03307 0.02205,0.0441 q -0.02205,0.17639 -0.02205,0.374827 0,0.02756 0.02205,0.347266 l -0.02205,0.03307 q -0.270096,-0.03307 -0.677996,-0.03307 h -3.081296 q -0.176389,0 -0.325218,0.0055 -0.143316,0.01102 -0.198437,0.01654 l -0.06063,0.01102 -0.01102,-0.03307 q 0.110243,-0.76619 0.110243,-2.259985 V 27.2321 q 0,-1.45521 -0.110243,-2.259985 l 0.02205,-0.03307 q 0.187414,0.03307 0.573265,0.03307 h 2.971053 q 0.4079,0 0.677996,-0.03307 l 0.02205,0.03307 q -0.02205,0.319705 -0.02205,0.429948 0,0.115756 0.02205,0.292145 l -0.02205,0.0441 q -1.565453,-0.132292 -3.070273,-0.132292 -0.09371,0.33073 -0.09371,1.626087 v 0.876433 q 1.185114,0 2.519056,-0.110243 l 0.03307,0.03307 q -0.03307,0.148828 -0.03307,0.363802 0,0.209462 0.03307,0.358291 l -0.03307,0.03307 Q 63.649195,28.67629 62.238083,28.67629 Z"
         style="font-style:normal;font-variant:normal;font-weight:normal;font-stretch:normal;font-size:11.2889px;font-family:'Linux Biolinum G';-inkscape-font-specification:'Linux Biolinum G';stroke-width:0.264583"
         id="path95" />
      <path
         d="m 68.306968,29.023556 v 0.97014 q 0,1.411113 0.115756,2.259985 l -0.02205,0.03307 q -0.209462,-0.03307 -0.578777,-0.03307 -0.369314,0 -0.573264,0.03307 l -0.02205,-0.03307 q 0.110244,-0.76619 0.110244,-2.259985 v -2.761591 q 0,-1.45521 -0.110244,-2.259985 l 0.02205,-0.03307 q 0.20395,0.03307 0.573264,0.03307 0.17639,0 0.782727,-0.03859 0.61185,-0.03858 0.744141,-0.03858 0.451997,0 0.760678,0.02756 0.308681,0.02205 0.700044,0.148828 0.396876,0.126779 0.650435,0.363802 0.595313,0.56224 0.595313,1.411113 0,0.650434 -0.314193,1.113456 -0.314193,0.457509 -0.815799,0.705556 -0.248047,0.12678 -0.683508,0.214974 0.264584,0.352778 1.179602,1.686721 0.92053,1.32843 1.234723,1.68672 l -0.02205,0.03307 q -0.225999,-0.03307 -0.677996,-0.03307 -0.463021,0 -0.677995,0.03307 -0.0882,-0.275608 -0.418924,-0.876433 Q 70.533877,30.80398 70.203148,30.2693 l -0.20395,-0.330729 -0.214974,-0.352778 q -0.07166,-0.121268 -0.198438,-0.292145 -0.121267,-0.170877 -0.23151,-0.303169 -0.45751,0.03307 -1.047311,0.03307 z m 1.052823,-3.643536 q -0.402388,0 -0.595313,0.01102 -0.192926,0.01102 -0.308681,0.07717 -0.115756,0.06063 -0.132292,0.143316 -0.01654,0.07717 -0.01654,0.264584 v 2.695445 h 0.655947 q 0.347266,0 0.628386,-0.0441 0.286633,-0.0441 0.545704,-0.159852 0.264584,-0.121268 0.440973,-0.308681 0.181901,-0.192926 0.286632,-0.496095 0.104731,-0.303168 0.104731,-0.705556 0,-0.352778 -0.104731,-0.617362 -0.09922,-0.270095 -0.259072,-0.429948 -0.159852,-0.159853 -0.385851,-0.259071 -0.220486,-0.09922 -0.429948,-0.132292 -0.20395,-0.03859 -0.429948,-0.03859 z"
         style="font-style:normal;font-variant:normal;font-weight:normal;font-stretch:normal;font-size:11.2889px;font-family:'Linux Biolinum G';-inkscape-font-specification:'Linux Biolinum G';stroke-width:0.264583"
         id="path97" />
      <path
         d="m 75.665698,31.86783 q 0.534679,0 0.926042,-0.352778 0.391364,-0.35829 0.391364,-0.964628 0,-0.347266 -0.09922,-0.611849 -0.09371,-0.264584 -0.292145,-0.451997 -0.192925,-0.192926 -0.407899,-0.314193 -0.209462,-0.12678 -0.518143,-0.259072 -0.341754,-0.148828 -0.567752,-0.264583 -0.242535,-0.121268 -0.518143,-0.314193 -0.275608,-0.198438 -0.451997,-0.4079 -0.170877,-0.209462 -0.292145,-0.507119 -0.115755,-0.297656 -0.115755,-0.63941 0,-0.589801 0.35829,-1.063847 0.358291,-0.474045 0.887458,-0.700044 0.457509,-0.192925 0.97014,-0.192925 0.369314,0 0.689019,0.05512 0.325218,0.04961 0.518143,0.12678 0.192926,0.07166 0.33073,0.148828 0.143316,0.07717 0.198438,0.132292 l 0.05512,0.04961 0.02205,0.03307 q -0.214974,0.733117 -0.259072,1.129993 l -0.110243,0.01102 q -0.231511,-0.529167 -0.655947,-0.854384 -0.418924,-0.33073 -0.881945,-0.33073 -0.429948,0 -0.68902,0.132292 -0.220486,0.121267 -0.369314,0.413412 -0.148829,0.292144 -0.148829,0.600825 0,0.270096 0.09371,0.496094 0.09371,0.225999 0.220486,0.369315 0.12678,0.143316 0.336242,0.275608 0.209462,0.132292 0.35829,0.198438 0.148829,0.06063 0.369315,0.143316 0.308681,0.115755 0.56224,0.242535 0.259071,0.121267 0.540192,0.325217 0.286632,0.198438 0.474045,0.429948 0.192926,0.225999 0.319705,0.551216 0.12678,0.325217 0.12678,0.705556 0,0.964628 -0.700044,1.559941 -0.700044,0.595313 -1.763891,0.595313 -0.369314,0 -0.71658,-0.05512 -0.347266,-0.04961 -0.584289,-0.121268 -0.231511,-0.07717 -0.413412,-0.148828 -0.176389,-0.07717 -0.259072,-0.12678 l -0.08268,-0.05512 -0.02205,-0.03307 q 0.01654,-0.05512 0.07166,-0.253559 l 0.08268,-0.308681 q 0.02756,-0.110243 0.06063,-0.28112 0.03307,-0.176389 0.04961,-0.319706 l 0.110243,-0.01102 q 0.259072,0.501607 0.788239,0.859897 0.534679,0.35829 1.008725,0.35829 z"
         style="font-style:normal;font-variant:normal;font-weight:normal;font-stretch:normal;font-size:11.2889px;font-family:'Linux Biolinum G';-inkscape-font-specification:'Linux Biolinum G';stroke-width:0.264583"
         id="path99" />
    </g>
    <g
       aria-label="OF"
       id="text42-8"
       style="font-style:normal;font-variant:normal;font-weight:normal;font-stretch:normal;font-size:11.2889px;line-height:1.25;font-family:'Linux Biolinum G';-inkscape-font-specification:'Linux Biolinum G';stroke-width:0.264583"
       transform="translate(-7.6350975,-22.300595)">
      <path
         d="m 36.641262,33.480851 q -0.336242,0 -0.655947,0.110243 -0.314193,0.104731 -0.61185,0.352778 -0.292144,0.242535 -0.51263,0.606337 -0.214975,0.363803 -0.347266,0.920531 -0.132292,0.556728 -0.132292,1.245748 0,0.788238 0.220486,1.427649 0.220486,0.63941 0.595313,1.041797 0.374827,0.402388 0.84336,0.622874 0.468534,0.214975 0.986677,0.214975 0.992188,0 1.604038,-0.8158 0.617362,-0.821311 0.617362,-2.29857 0,-1.714281 -0.68902,-2.568666 -0.68902,-0.859896 -1.918231,-0.859896 z m 3.770316,3.213588 q 0,1.118968 -0.451997,1.989889 -0.446485,0.870921 -1.273309,1.355991 -0.821311,0.479558 -1.885158,0.479558 -0.975652,0 -1.785939,-0.429949 -0.810287,-0.43546 -1.306382,-1.267796 -0.490582,-0.832336 -0.490582,-1.912719 0,-1.091407 0.468534,-1.989889 0.468533,-0.903994 1.284333,-1.422137 0.821311,-0.518143 1.819012,-0.518143 1.014237,0 1.835549,0.457509 0.821311,0.457509 1.300869,1.311894 0.48507,0.848872 0.48507,1.945792 z"
         style="font-style:normal;font-variant:normal;font-weight:normal;font-stretch:normal;font-size:11.2889px;font-family:'Linux Biolinum G';-inkscape-font-specification:'Linux Biolinum G';stroke-width:0.264583"
         id="path102" />
      <path
         d="m 45.593007,33.128072 q 0.440973,0 0.711068,-0.03307 l 0.02205,0.03307 q -0.02205,0.319706 -0.02205,0.385851 0,0.159853 0.02205,0.336242 l -0.02205,0.0441 q -1.565453,-0.132291 -3.070272,-0.132291 -0.09371,0.330729 -0.09371,1.626086 v 0.876434 q 1.185114,0 2.519057,-0.110244 l 0.03307,0.03307 q -0.03307,0.148829 -0.03307,0.363803 0,0.209462 0.03307,0.35829 l -0.03307,0.03307 Q 44.551206,36.83224 43.140093,36.83224 v 1.317406 q 0,1.411112 0.115756,2.259985 l -0.02205,0.03307 q -0.192925,-0.03307 -0.578777,-0.03307 -0.176389,0 -0.325217,0.0055 -0.143316,0.01102 -0.198438,0.01654 l -0.06063,0.01102 -0.01102,-0.03307 q 0.110244,-0.76619 0.110244,-2.259985 v -2.761592 q 0,-1.455209 -0.110244,-2.259985 l 0.02205,-0.03307 q 0.187413,0.03307 0.573264,0.03307 z"
         style="font-style:normal;font-variant:normal;font-weight:normal;font-stretch:normal;font-size:11.2889px;font-family:'Linux Biolinum G';-inkscape-font-specification:'Linux Biolinum G';stroke-width:0.264583"
         id="path104" />
    </g>
    <g
       aria-label="F"
       id="text64"
       style="font-style:normal;font-variant:normal;font-weight:normal;font-stretch:normal;font-size:19.7556px;line-height:1.25;font-family:'Linux Biolinum G';-inkscape-font-specification:'Linux Biolinum G';stroke-width:0.264583"
       transform="translate(-7.6350975,-22.300595)">
      <path
         d="m 54.647472,33.096135 q 0.771703,0 1.244371,-0.05788 l 0.03858,0.05788 q -0.03858,0.559484 -0.03858,0.67524 0,0.279742 0.03858,0.588423 l -0.03858,0.07717 q -2.739546,-0.231511 -5.372983,-0.231511 -0.163987,0.578777 -0.163987,2.845655 v 1.53376 q 2.073952,0 4.408354,-0.192926 l 0.05788,0.05788 q -0.05788,0.26045 -0.05788,0.636655 0,0.366559 0.05788,0.627009 l -0.05788,0.05788 q -1.938904,-0.192926 -4.408354,-0.192926 v 2.305463 q 0,2.46945 0.202572,3.954978 l -0.03859,0.05788 q -0.33762,-0.05788 -1.01286,-0.05788 -0.308682,0 -0.569131,0.0096 -0.250804,0.01929 -0.347267,0.02894 l -0.106109,0.01929 -0.01929,-0.05788 q 0.192926,-1.340834 0.192926,-3.954978 v -4.832791 q 0,-2.54662 -0.192926,-3.954978 l 0.03859,-0.05788 q 0.327973,0.05788 1.003214,0.05788 z"
         style="font-style:normal;font-variant:normal;font-weight:normal;font-stretch:normal;font-size:19.7556px;font-family:'Linux Biolinum G';-inkscape-font-specification:'Linux Biolinum G';stroke-width:0.264583"
         id="path114" />
    </g>
    <g
       aria-label="ATE"
       id="text42-8-2"
       style="font-style:normal;font-variant:normal;font-weight:normal;font-stretch:normal;font-size:11.2889px;line-height:1.25;font-family:'Linux Biolinum G';-inkscape-font-specification:'Linux Biolinum G';stroke-width:0.264583"
       transform="translate(-7.6350975,-22.300595)">
      <path
         d="m 60.272605,37.300776 q -0.53468,-1.394576 -1.141017,-2.78364 h -0.02205 l -1.190626,2.778128 q 0.09922,0 0.545704,0.01102 0.446485,0.01102 0.633898,0.01102 0.622874,0 1.17409,-0.01654 z m -2.574178,0.529168 q -0.683508,1.681208 -0.937067,2.612763 -0.137804,-0.03307 -0.512631,-0.03307 -0.253559,0 -0.391363,0.03307 l 3.329344,-7.463463 h 0.314193 l 1.091407,2.667885 1.229211,3.020663 q 0.523655,1.273308 0.771702,1.774915 -0.192925,-0.03307 -0.672483,-0.03307 -0.374827,0 -0.567752,0.03307 -0.248047,-0.926043 -0.876433,-2.612763 -0.633899,-0.01654 -1.322918,-0.01654 -0.810288,0 -1.45521,0.01654 z"
         style="font-style:normal;font-variant:normal;font-weight:normal;font-stretch:normal;font-size:11.2889px;font-family:'Linux Biolinum G';-inkscape-font-specification:'Linux Biolinum G';stroke-width:0.264583"
         id="path107" />
      <path
         d="m 64.62721,35.388057 q 0,-1.317406 -0.08819,-1.626086 -0.672484,0 -1.240236,0.03858 -0.56224,0.03858 -0.804775,0.07717 l -0.237023,0.03858 -0.02205,-0.0441 q 0.03307,-0.264584 0,-0.744142 l 0.02205,-0.03307 q 0.270096,0.03307 0.677995,0.03307 h 4.354606 q 0.407899,0 0.677995,-0.03307 l 0.02205,0.03307 q -0.03307,0.479558 0,0.744142 l -0.02205,0.0441 q -0.777214,-0.15434 -2.282034,-0.15434 -0.08819,0.30868 -0.08819,1.626086 v 2.761592 q 0,1.411112 0.115755,2.259985 l -0.02756,0.03307 q -0.203949,-0.03307 -0.573264,-0.03307 -0.369315,0 -0.573264,0.03307 l -0.02756,-0.03307 q 0.115755,-0.804775 0.115755,-2.259985 z"
         style="font-style:normal;font-variant:normal;font-weight:normal;font-stretch:normal;font-size:11.2889px;font-family:'Linux Biolinum G';-inkscape-font-specification:'Linux Biolinum G';stroke-width:0.264583"
         id="path109" />
      <path
         d="m 70.580341,38.149649 q 0,1.300869 0.09371,1.626086 0.672483,0 1.466234,-0.03307 0.793751,-0.03307 1.256772,-0.06615 l 0.457509,-0.03307 0.02205,0.0441 q -0.02205,0.176389 -0.02205,0.374827 0,0.02756 0.02205,0.347266 l -0.02205,0.03307 q -0.270096,-0.03307 -0.677995,-0.03307 h -3.081297 q -0.176389,0 -0.325217,0.0055 -0.143316,0.01102 -0.198438,0.01654 l -0.06063,0.01102 -0.01102,-0.03307 q 0.110243,-0.76619 0.110243,-2.259985 v -2.761592 q 0,-1.455209 -0.110243,-2.259985 l 0.02205,-0.03307 q 0.187413,0.03307 0.573264,0.03307 h 2.971053 q 0.4079,0 0.677996,-0.03307 l 0.02205,0.03307 q -0.02205,0.319706 -0.02205,0.429949 0,0.115755 0.02205,0.292144 l -0.02205,0.0441 q -1.565453,-0.132291 -3.070272,-0.132291 -0.09371,0.330729 -0.09371,1.626086 v 0.876434 q 1.185114,0 2.519056,-0.110244 l 0.03307,0.03307 q -0.03307,0.148829 -0.03307,0.363803 0,0.209462 0.03307,0.35829 l -0.03307,0.03307 Q 71.991463,36.832234 70.58035,36.832234 Z"
         style="font-style:normal;font-variant:normal;font-weight:normal;font-stretch:normal;font-size:11.2889px;font-family:'Linux Biolinum G';-inkscape-font-specification:'Linux Biolinum G';stroke-width:0.264583"
         id="path111" />
    </g>
    <path
       style="fill:none;stroke:#000000;stroke-width:0.565;stroke-linecap:butt;stroke-linejoin:miter;stroke-miterlimit:4;stroke-dasharray:none;stroke-opacity:1"
       d="m 4.1459585,20.951975 c 36.0813875,7.75082 36.6159255,16.83798 36.6159255,16.83798 l 0.133636,1.60362 -39.4222555,-4.40995 -0.267269,2.00453 39.8231595,4.54358 -0.167044,-2.17157"
       id="path976" />
    <path
       style="fill:none;stroke:#000000;stroke-width:0.619;stroke-linecap:butt;stroke-linejoin:miter;stroke-miterlimit:4;stroke-dasharray:none;stroke-opacity:1"
       d="m 2.2416645,34.716355 1.035669,-5.61266 v 0"
       id="path978" />
    <path
       style="fill:none;stroke:#000000;stroke-width:0.619;stroke-linecap:butt;stroke-linejoin:miter;stroke-miterlimit:4;stroke-dasharray:none;stroke-opacity:1"
       d="m 3.2773335,29.103695 c 15.2677715,-0.53454 37.1516415,8.45766 37.1516415,8.45766"
       id="path980" />
    <path
       style="fill:none;stroke:#000000;stroke-width:0.565;stroke-linecap:butt;stroke-linejoin:miter;stroke-miterlimit:4;stroke-dasharray:none;stroke-opacity:1"
       d="m 2.9766565,31.742985 c 11.7264495,-0.23386 13.4302925,1.73725 13.4302925,1.73725"
       id="path984" />
    <path
       style="fill:none;stroke:#000000;stroke-width:0.565007;stroke-linecap:butt;stroke-linejoin:miter;stroke-miterlimit:4;stroke-dasharray:none;stroke-opacity:1"
       d="m 77.91336,20.951975 c -36.082373,7.75082 -36.616928,16.83798 -36.616928,16.83798 l -0.133644,1.60362 39.423342,-4.40995 0.26728,2.00453 -39.824255,4.54358 0.167044,-2.17157"
       id="path976-7" />
    <path
       style="fill:none;stroke:#000000;stroke-width:0.619009;stroke-linecap:butt;stroke-linejoin:miter;stroke-miterlimit:4;stroke-dasharray:none;stroke-opacity:1"
       d="m 79.81771,34.716355 -1.0357,-5.61266 v 0"
       id="path978-5" />
    <path
       style="fill:none;stroke:#000000;stroke-width:0.619009;stroke-linecap:butt;stroke-linejoin:miter;stroke-miterlimit:4;stroke-dasharray:none;stroke-opacity:1"
       d="m 78.78201,29.103695 c -15.26819,-0.53454 -37.152659,8.45766 -37.152659,8.45766"
       id="path980-7" />
    <path
       style="fill:none;stroke:#000000;stroke-width:0.565007;stroke-linecap:butt;stroke-linejoin:miter;stroke-miterlimit:4;stroke-dasharray:none;stroke-opacity:1"
       d="m 79.0827,31.742985 c -11.72678,-0.23386 -13.43067,1.73725 -13.43067,1.73725"
       id="path984-2" />
  </g>
</svg>
